<svg width="40" height="42" viewBox="0 0 40 42" fill="none" xmlns="http://www.w3.org/2000/svg">
<path d="M36.6667 0H10C9.11594 0 8.2681 0.368749 7.64298 1.02513C7.01786 1.6815 6.66667 2.57174 6.66667 3.5V7H3.33333C2.44928 7 1.60143 7.36875 0.976311 8.02513C0.351189 8.6815 0 9.57174 0 10.5V38.5C0 39.4283 0.351189 40.3185 0.976311 40.9749C1.60143 41.6312 2.44928 42 3.33333 42H30C30.8841 42 31.7319 41.6312 32.357 40.9749C32.9821 40.3185 33.3333 39.4283 33.3333 38.5V35H36.6667C37.5507 35 38.3986 34.6312 39.0237 33.9749C39.6488 33.3185 40 32.4283 40 31.5V3.5C40 2.57174 39.6488 1.6815 39.0237 1.02513C38.3986 0.368749 37.5507 0 36.6667 0ZM10 3.5H36.6667V18.6769L33.1875 15.0238C32.5624 14.3679 31.7149 13.9994 30.8313 13.9994C29.9476 13.9994 29.1001 14.3679 28.475 15.0238L12.7854 31.5H10V3.5ZM30 38.5H3.33333V10.5H6.66667V31.5C6.66667 32.4283 7.01786 33.3185 7.64298 33.9749C8.2681 34.6312 9.11594 35 10 35H30V38.5ZM15 12.25C15 11.5578 15.1955 10.8811 15.5618 10.3055C15.928 9.72993 16.4486 9.28133 17.0577 9.01642C17.6668 8.75151 18.337 8.6822 18.9836 8.81725C19.6302 8.9523 20.2242 9.28564 20.6904 9.77513C21.1565 10.2646 21.474 10.8883 21.6026 11.5672C21.7312 12.2461 21.6652 12.9499 21.4129 13.5894C21.1606 14.2289 20.7334 14.7756 20.1852 15.1601C19.6371 15.5447 18.9926 15.75 18.3333 15.75C17.4493 15.75 16.6014 15.3813 15.9763 14.7249C15.3512 14.0685 15 13.1783 15 12.25Z" fill="white"/>
</svg>
