<svg width="39" height="36" viewBox="0 0 39 36" fill="none" xmlns="http://www.w3.org/2000/svg">
<path fill-rule="evenodd" clip-rule="evenodd" d="M23.6803 0H6.9648C5.11762 0 3.34609 0.948211 2.03994 2.63604C0.733789 4.32387 0 6.61305 0 9V27C0 29.3869 0.733789 31.6761 2.03994 33.364C3.34609 35.0518 5.11762 36 6.9648 36H23.6803C25.5275 36 27.299 35.0518 28.6052 33.364C29.9113 31.6761 30.6451 29.3869 30.6451 27V9C30.6451 6.61305 29.9113 4.32387 28.6052 2.63604C27.299 0.948211 25.5275 0 23.6803 0ZM2.78592 9C2.78592 7.56783 3.22619 6.19432 4.00988 5.18162C4.79358 4.16893 5.85649 3.6 6.9648 3.6H23.6803C24.7886 3.6 25.8515 4.16893 26.6352 5.18162C27.4189 6.19432 27.8592 7.56783 27.8592 9V27C27.8592 28.4322 27.4189 29.8057 26.6352 30.8184C25.8515 31.8311 24.7886 32.4 23.6803 32.4H6.9648C5.85649 32.4 4.79358 31.8311 4.00988 30.8184C3.22619 29.8057 2.78592 28.4322 2.78592 27V9Z" fill="white"/>
<path fill-rule="evenodd" clip-rule="evenodd" d="M36.8521 3.888L28.5556 10.8612C28.3628 11.0227 28.204 11.2433 28.0931 11.5033C27.9823 11.7633 27.923 12.0548 27.9204 12.3516L27.8452 21.7548C27.8423 22.058 27.8988 22.3573 28.0094 22.6247C28.1199 22.8922 28.281 23.1193 28.4776 23.2848L36.8465 30.312C37.0567 30.489 37.3 30.5894 37.5507 30.6025C37.8015 30.6156 38.0503 30.541 38.2709 30.3865C38.4915 30.2319 38.6757 30.0033 38.804 29.7247C38.9323 29.4461 39.0001 29.1278 39 28.8036V5.4C39.0006 5.07545 38.9332 4.75675 38.8051 4.47762C38.6769 4.1985 38.4928 3.96934 38.2721 3.81439C38.0514 3.65945 37.8024 3.58449 37.5514 3.59744C37.3005 3.6104 37.0569 3.71079 36.8465 3.888M36.2169 25.488L30.6423 20.8044L30.7008 13.3524L36.2169 8.7192V25.488Z" fill="white"/>
</svg>
