<svg width="72" height="82" viewBox="0 0 72 82" fill="none" xmlns="http://www.w3.org/2000/svg">
<g filter="url(#filter0_d_264_718)">
<path d="M63.5798 28.7365L7.88429 28.7365C6.90093 28.7365 5.95784 29.1382 5.2625 29.8531C4.56715 30.568 4.17651 31.5377 4.17651 32.5487L4.17651 69.5354C4.17651 70.5465 4.56715 71.5161 5.2625 72.231C5.95784 72.946 6.90093 73.3476 7.88429 73.3476H63.5798C64.5632 73.3476 65.5063 72.946 66.2016 72.231C66.897 71.5161 67.2876 70.5465 67.2876 69.5354V32.5487C67.2876 31.5377 66.897 30.568 66.2016 29.8531C65.5063 29.1382 64.5632 28.7365 63.5798 28.7365ZM47.9204 52.7251L28.6518 61.5662C28.3518 61.7049 28.0228 61.7642 27.6947 61.7388C27.3667 61.7133 27.0501 61.6039 26.7737 61.4205C26.4973 61.2371 26.2699 60.9855 26.1123 60.6887C25.9546 60.3918 25.8716 60.0592 25.871 59.721V42.0387C25.8716 41.7005 25.9546 41.3678 26.1123 41.071C26.2699 40.7742 26.4973 40.5226 26.7737 40.3392C27.0501 40.1558 27.3667 40.0464 27.6947 40.0209C28.0228 39.9955 28.3518 40.0548 28.6518 40.1935L47.9204 49.0143C48.2704 49.173 48.5679 49.4328 48.7768 49.7622C48.9857 50.0917 49.0969 50.4765 49.0969 50.8697C49.0969 51.263 48.9857 51.6477 48.7768 51.9772C48.5679 52.3066 48.2704 52.5665 47.9204 52.7251Z" fill="white"/>
<path d="M59.6748 14.5421C59.6748 14.0043 59.467 13.4885 59.0971 13.1082C58.7273 12.7279 58.2256 12.5143 57.7025 12.5143L14.3137 12.5143C13.7906 12.5143 13.2889 12.7279 12.9191 13.1082C12.5492 13.4885 12.3414 14.0043 12.3414 14.5421V16.5698H59.6748V14.5421Z" fill="white"/>
<path d="M63.5798 22.6531C63.5798 22.1153 63.372 21.5996 63.0021 21.2193C62.6323 20.839 62.1306 20.6254 61.6075 20.6254L10.3298 20.6254C9.8067 20.6254 9.30506 20.839 8.93519 21.2193C8.56533 21.5996 8.35754 22.1153 8.35754 22.6531V24.6809H63.5798V22.6531Z" fill="white"/>
</g>
<defs>
<filter id="filter0_d_264_718" x="-4" y="0" width="79" height="81.3476" filterUnits="userSpaceOnUse" color-interpolation-filters="sRGB">
<feFlood flood-opacity="0" result="BackgroundImageFix"/>
<feColorMatrix in="SourceAlpha" type="matrix" values="0 0 0 0 0 0 0 0 0 0 0 0 0 0 0 0 0 0 127 0" result="hardAlpha"/>
<feOffset dy="4"/>
<feGaussianBlur stdDeviation="2"/>
<feComposite in2="hardAlpha" operator="out"/>
<feColorMatrix type="matrix" values="0 0 0 0 0 0 0 0 0 0 0 0 0 0 0 0 0 0 0.25 0"/>
<feBlend mode="normal" in2="BackgroundImageFix" result="effect1_dropShadow_264_718"/>
<feBlend mode="normal" in="SourceGraphic" in2="effect1_dropShadow_264_718" result="shape"/>
</filter>
</defs>
</svg>
