<svg width="64" height="63" viewBox="0 0 64 63" fill="none" xmlns="http://www.w3.org/2000/svg">
<path fill-rule="evenodd" clip-rule="evenodd" d="M29.1329 0.527405C27.6631 0.527405 26.378 1.51808 26.0039 2.93946L24.6398 8.12303L20.5831 9.83306L17.3364 6.94532C16.0561 5.80654 14.1099 5.86343 12.8983 7.07506L7.29827 12.6751C6.12589 13.8474 6.02946 15.7163 7.07495 17.0031L9.93718 20.526L8.26296 24.6423L3.25076 25.8121C1.78648 26.1538 0.75061 27.4593 0.75061 28.9629L0.75061 34.5629C0.75061 36.0217 1.72675 37.3 3.13401 37.6842L8.33905 39.1052L10.0547 43.1751L7.17095 46.4099C6.02979 47.69 6.08564 49.6381 7.29827 50.8507L12.8983 56.4507C14.0719 57.6244 15.9434 57.7196 17.2301 56.671L20.752 53.8009L24.7597 55.4496L26.0491 60.5551C26.4119 61.9918 27.7043 62.9984 29.1861 62.9984H34.7861C36.2671 62.9984 37.559 61.9929 37.9226 60.5573L39.2166 55.448L43.3689 53.7284C43.7765 54.0724 44.2287 54.4613 44.6828 54.8566C45.2064 55.3124 45.6932 55.742 46.0495 56.0581C46.2275 56.216 46.3724 56.3451 46.4724 56.4344L46.5873 56.5371L46.6167 56.5634L46.6239 56.5698L46.6255 56.5713L46.6258 56.5716L46.6259 56.5716C47.9054 57.7191 49.8587 57.666 51.074 56.4507L56.674 50.8507C57.8647 49.66 57.943 47.7551 56.8541 46.4706L53.9754 43.075L55.6782 38.9631L60.8005 37.6303C62.2262 37.2594 63.2213 35.9723 63.2213 34.4992L63.2216 28.9631C63.2217 27.4832 62.2177 26.1919 60.7835 25.8272L55.6977 24.5339L53.9989 20.4319L56.8568 17.052C57.943 15.7673 57.8635 13.8646 56.674 12.6751L51.074 7.07506C49.8798 5.88088 47.968 5.80604 46.6841 6.90322L43.3288 9.77061L39.0681 8.01841L37.7343 2.94087C37.3607 1.51879 36.0753 0.527405 34.6049 0.527405L29.1329 0.527405ZM49.9912 48.3822L48.6457 49.7276C47.6637 48.8766 46.4837 47.8758 45.7819 47.3741C44.8734 46.7247 43.6942 46.5897 42.6624 47.017L35.2407 50.0906C34.2969 50.4815 33.5931 51.2952 33.3422 52.2855L32.2679 56.5274H31.7061L30.6347 52.2851C30.3837 51.2913 29.6766 50.4751 28.7287 50.0851L21.4323 47.0835C20.3345 46.6319 19.0776 46.8177 18.1574 47.5676L15.4075 49.8086L14.0343 48.4354L16.2454 45.9551C17.0763 45.023 17.2967 43.6959 16.8116 42.5453L13.6906 35.1415C13.3048 34.2261 12.5197 33.5387 11.5613 33.277L7.22161 32.0923V31.5302L11.3645 30.5634C12.3872 30.3247 13.2305 29.6044 13.6262 28.6316L16.6526 21.1907C17.0975 20.097 16.9112 18.8478 16.1667 17.9315L13.9373 15.1874L15.3161 13.8086L17.8082 16.0252C18.7402 16.8542 20.0658 17.0736 21.2152 16.589L28.6204 13.4675C29.5454 13.0776 30.2371 12.2803 30.4926 11.3095L31.6271 6.99841H32.1096L33.2186 11.2202C33.4763 12.2013 34.1792 13.0047 35.1174 13.3905L42.6967 16.5075C43.8195 16.9693 45.1063 16.7636 46.0293 15.9749L48.6137 13.7662L49.9939 15.1464L47.7846 17.7593C47.0028 18.6839 46.8027 19.9676 47.266 21.0863L50.3395 28.508C50.73 29.4508 51.5424 30.1542 52.5315 30.4057L56.7505 31.4786L56.7505 31.9976L52.4903 33.1061C51.5088 33.3614 50.7038 34.0623 50.3157 34.9994L47.2413 42.4233C46.7775 43.5434 46.9787 44.8288 47.7627 45.7535L49.9912 48.3822ZM31.9862 20.1274C25.56 20.1274 20.3507 25.3366 20.3507 31.7629C20.3507 38.1891 25.56 43.3984 31.9862 43.3984C38.4124 43.3984 43.6217 38.1891 43.6217 31.7629C43.6217 25.3366 38.4124 20.1274 31.9862 20.1274ZM26.8217 31.7629C26.8217 28.9105 29.1338 26.5984 31.9862 26.5984C34.8386 26.5984 37.1507 28.9105 37.1507 31.7629C37.1507 34.6153 34.8386 36.9274 31.9862 36.9274C29.1338 36.9274 26.8217 34.6153 26.8217 31.7629Z" fill="white"/>
</svg>
