<svg width="50" height="50" viewBox="0 0 50 50" fill="none" xmlns="http://www.w3.org/2000/svg">
<path d="M42.136 18.2418C40.5883 18.2464 39.0859 18.7643 37.8641 19.7143C36.6423 20.6644 35.7702 21.9929 35.3845 23.4918H27.8875C27.6396 22.5049 27.1778 21.5845 26.5347 20.7959C25.8916 20.0074 25.083 19.3698 24.1662 18.9285C23.2493 18.4872 22.2466 18.2529 21.2291 18.2422C20.2116 18.2315 19.2042 18.4446 18.2782 18.8665L12.7185 11.919C13.633 10.718 14.1307 9.25134 14.136 7.74176C14.136 6.35729 13.7254 5.00392 12.9563 3.85277C12.1871 2.70163 11.0939 1.80442 9.81477 1.27461C8.53569 0.744793 7.12822 0.60617 5.77036 0.876266C4.41249 1.14636 3.16521 1.81305 2.18624 2.79202C1.20727 3.77098 0.540589 5.01826 0.270493 6.37613C0.000395969 7.734 0.139019 9.14146 0.668833 10.4205C1.19865 11.6996 2.09585 12.7929 3.247 13.562C4.39814 14.3312 5.75152 14.7418 7.13599 14.7418C8.12277 14.7395 9.09767 14.5265 9.99549 14.117L15.5535 21.0645C14.6348 22.2633 14.1368 23.7314 14.1368 25.2418C14.1368 26.7521 14.6348 28.2203 15.5535 29.419L9.99549 36.3665C9.09767 35.9571 8.12277 35.7441 7.13599 35.7418C5.75152 35.7418 4.39814 36.1523 3.247 36.9215C2.09585 37.6906 1.19865 38.7839 0.668833 40.063C0.139019 41.3421 0.000395969 42.7495 0.270493 44.1074C0.540589 45.4653 1.20727 46.7125 2.18624 47.6915C3.16521 48.6705 4.41249 49.3372 5.77036 49.6073C7.12822 49.8774 8.53569 49.7387 9.81477 49.2089C11.0939 48.6791 12.1871 47.7819 12.9563 46.6308C13.7254 45.4796 14.136 44.1262 14.136 42.7418C14.1308 41.2322 13.6331 39.7655 12.7185 38.5645L18.2765 31.617C19.2025 32.0392 20.2101 32.2526 21.2278 32.2421C22.2455 32.2315 23.2484 31.9973 24.1655 31.5559C25.0826 31.1146 25.8914 30.477 26.5346 29.6882C27.1778 28.8995 27.6397 27.9789 27.8875 26.9918H35.3845C35.714 28.2562 36.3915 29.403 37.34 30.3018C38.2886 31.2006 39.4701 31.8154 40.7505 32.0764C42.0308 32.3374 43.3588 32.2342 44.5834 31.7785C45.8081 31.3228 46.8804 30.5328 47.6787 29.4982C48.4769 28.4637 48.9691 27.226 49.0993 25.9258C49.2296 24.6256 48.9926 23.315 48.4153 22.1427C47.8381 20.9704 46.9437 19.9834 45.8337 19.2939C44.7238 18.6043 43.4427 18.2398 42.136 18.2418ZM3.63599 7.74176C3.63599 7.04953 3.84126 6.37284 4.22585 5.79727C4.61043 5.2217 5.15706 4.77309 5.7966 4.50818C6.43614 4.24328 7.13987 4.17397 7.81881 4.30901C8.49774 4.44406 9.12138 4.77741 9.61086 5.26689C10.1003 5.75637 10.4337 6.38001 10.5687 7.05895C10.7038 7.73788 10.6345 8.44161 10.3696 9.08116C10.1047 9.7207 9.65606 10.2673 9.08049 10.6519C8.50491 11.0365 7.82822 11.2418 7.13599 11.2418C6.20802 11.2408 5.31832 10.8718 4.66214 10.2156C4.00596 9.55944 3.63692 8.66974 3.63599 7.74176ZM7.13599 46.2418C6.44376 46.2418 5.76707 46.0365 5.19149 45.6519C4.61592 45.2673 4.16732 44.7207 3.90241 44.0812C3.6375 43.4416 3.56819 42.7379 3.70324 42.0589C3.83829 41.38 4.17163 40.7564 4.66112 40.2669C5.1506 39.7774 5.77424 39.4441 6.45317 39.309C7.13211 39.174 7.83584 39.2433 8.47538 39.5082C9.11492 39.7731 9.66155 40.2217 10.0461 40.7973C10.4307 41.3728 10.636 42.0495 10.636 42.7418C10.6351 43.6697 10.266 44.5594 9.60984 45.2156C8.95366 45.8718 8.06396 46.2408 7.13599 46.2418ZM21.136 28.7418C20.4438 28.7418 19.7671 28.5365 19.1915 28.1519C18.6159 27.7673 18.1673 27.2207 17.9024 26.5812C17.6375 25.9416 17.5682 25.2379 17.7032 24.5589C17.8383 23.88 18.1716 23.2564 18.6611 22.7669C19.1506 22.2774 19.7742 21.9441 20.4532 21.809C21.1321 21.674 21.8358 21.7433 22.4754 22.0082C23.1149 22.2731 23.6615 22.7217 24.0461 23.2973C24.4307 23.8728 24.636 24.5495 24.636 25.2418C24.6351 26.1697 24.266 27.0594 23.6098 27.7156C22.9537 28.3718 22.064 28.7408 21.136 28.7418ZM42.136 28.7418C41.4438 28.7418 40.7671 28.5365 40.1915 28.1519C39.6159 27.7673 39.1673 27.2207 38.9024 26.5812C38.6375 25.9416 38.5682 25.2379 38.7032 24.5589C38.8383 23.88 39.1716 23.2564 39.6611 22.7669C40.1506 22.2774 40.7742 21.9441 41.4532 21.809C42.1321 21.674 42.8358 21.7433 43.4754 22.0082C44.1149 22.2731 44.6615 22.7217 45.0461 23.2973C45.4307 23.8728 45.636 24.5495 45.636 25.2418C45.6351 26.1697 45.266 27.0594 44.6098 27.7156C43.9537 28.3718 43.064 28.7408 42.136 28.7418Z" fill="white"/>
</svg>
