<svg width="45" height="38" viewBox="0 0 45 38" fill="none" xmlns="http://www.w3.org/2000/svg">
<path d="M40.5 5.18182H33.7793L30.447 0.384318C30.365 0.266315 30.2539 0.169522 30.1236 0.102493C29.9933 0.0354639 29.8478 0.000262645 29.7 0H15.3C15.1522 0.000262645 15.0067 0.0354639 14.8764 0.102493C14.7461 0.169522 14.635 0.266315 14.553 0.384318L11.2163 5.18182H4.5C3.30653 5.18182 2.16193 5.63677 1.31802 6.44658C0.474106 7.2564 0 8.35475 0 9.5V33.6818C0 34.8271 0.474106 35.9254 1.31802 36.7352C2.16193 37.5451 3.30653 38 4.5 38H40.5C41.6935 38 42.8381 37.5451 43.682 36.7352C44.5259 35.9254 45 34.8271 45 33.6818V9.5C45 8.35475 44.5259 7.2564 43.682 6.44658C42.8381 5.63677 41.6935 5.18182 40.5 5.18182ZM43.2 33.6818C43.2 34.369 42.9155 35.028 42.4092 35.5139C41.9028 35.9998 41.2161 36.2727 40.5 36.2727H4.5C3.78392 36.2727 3.09716 35.9998 2.59081 35.5139C2.08446 35.028 1.8 34.369 1.8 33.6818V9.5C1.8 8.81285 2.08446 8.15384 2.59081 7.66795C3.09716 7.18206 3.78392 6.90909 4.5 6.90909H11.7C11.8482 6.90918 11.9941 6.87415 12.1249 6.80711C12.2556 6.74006 12.367 6.64308 12.4493 6.52477L15.7793 1.72727H29.2163L32.5508 6.52477C32.633 6.64308 32.7444 6.74006 32.8751 6.80711C33.0059 6.87415 33.1518 6.90918 33.3 6.90909H40.5C41.2161 6.90909 41.9028 7.18206 42.4092 7.66795C42.9155 8.15384 43.2 8.81285 43.2 9.5V33.6818ZM22.5 12.0909C20.72 12.0909 18.9799 12.5974 17.4999 13.5464C16.0198 14.4954 14.8663 15.8442 14.1851 17.4223C13.5039 19.0004 13.3257 20.7369 13.6729 22.4121C14.0202 24.0874 14.8774 25.6263 16.136 26.8341C17.3947 28.0419 18.9984 28.8645 20.7442 29.1977C22.49 29.5309 24.2996 29.3599 25.9442 28.7062C27.5887 28.0526 28.9943 26.9456 29.9832 25.5254C30.9722 24.1051 31.5 22.4354 31.5 20.7273C31.5 18.4368 30.5518 16.2401 28.864 14.6204C27.1761 13.0008 24.8869 12.0909 22.5 12.0909ZM22.5 27.6364C21.076 27.6364 19.6839 27.2312 18.4999 26.472C17.3159 25.7128 16.393 24.6337 15.8481 23.3713C15.3031 22.1088 15.1605 20.7196 15.4383 19.3794C15.7162 18.0391 16.4019 16.8081 17.4088 15.8418C18.4158 14.8756 19.6987 14.2175 21.0954 13.9509C22.492 13.6843 23.9397 13.8212 25.2553 14.3441C26.5709 14.867 27.6954 15.7526 28.4866 16.8888C29.2777 18.025 29.7 19.3608 29.7 20.7273C29.7 22.5597 28.9414 24.317 27.5912 25.6127C26.2409 26.9084 24.4096 27.6364 22.5 27.6364Z" fill="white"/>
</svg>
