<?xml version="1.0" standalone="no"?>
<svg version="1.0" xmlns="http://www.w3.org/2000/svg"
 width="840.000000pt" height="859.000000pt" viewBox="0 0 840.000000 859.000000"
 preserveAspectRatio="xMidYMid meet">

<g transform="translate(0.000000,859.000000) scale(0.100000,-0.100000)"
fill="#ffffff" stroke="none">
<path d="M5830 8238 c0 -246 -10 -317 -53 -389 -58 -95 -143 -114 -258 -57
-50 25 -100 67 -230 195 -91 90 -170 163 -175 163 -12 0 -624 -612 -624 -624
0 -5 71 -82 158 -171 132 -133 165 -174 195 -234 43 -85 47 -133 17 -191 -20
-40 -76 -80 -142 -102 -19 -7 -138 -14 -283 -17 l-250 -6 0 -445 0 -445 240
-6 c254 -7 308 -16 375 -61 50 -34 72 -71 78 -126 7 -81 -42 -172 -155 -287
-74 -75 -76 -73 -27 41 25 60 48 114 51 121 5 12 -31 30 -162 83 -38 16 -279
117 -535 224 -255 107 -468 192 -471 188 -4 -4 -58 -128 -121 -277 -119 -283
-177 -387 -252 -451 -173 -148 -364 -72 -495 200 -27 56 -88 199 -137 319 -84
206 -90 218 -112 212 -13 -3 -128 -49 -255 -101 -128 -52 -290 -119 -362 -148
-569 -232 -536 -217 -529 -240 4 -11 32 -84 64 -161 172 -418 184 -460 178
-600 -3 -68 -10 -101 -26 -133 -64 -122 -237 -155 -447 -84 -50 17 -192 73
-317 126 -126 53 -232 96 -236 96 -5 0 -27 -44 -49 -97 -22 -54 -131 -315
-243 -581 -112 -265 -200 -485 -197 -488 3 -3 111 -49 240 -103 293 -123 379
-168 455 -237 148 -134 149 -281 3 -417 -74 -68 -179 -122 -451 -232 -118 -48
-225 -92 -237 -99 -21 -11 -20 -14 78 -256 55 -135 113 -276 129 -315 16 -38
77 -187 135 -330 59 -143 110 -264 115 -269 6 -6 24 -3 47 6 21 8 144 58 273
111 267 108 356 132 469 125 88 -5 142 -29 188 -82 45 -50 58 -98 57 -201 -2
-116 -17 -163 -149 -479 -59 -141 -105 -261 -103 -266 2 -6 212 -99 468 -206
630 -264 689 -288 694 -283 2 2 53 121 114 265 121 286 158 355 228 433 150
167 329 141 469 -68 52 -80 78 -136 191 -416 47 -116 88 -213 92 -217 7 -7 84
22 452 173 80 33 274 113 433 177 158 64 287 121 287 127 0 5 -21 60 -46 120
-189 455 -209 522 -202 658 5 96 28 149 84 195 52 43 107 56 222 49 116 -6
167 -23 496 -161 125 -54 230 -96 231 -94 3 4 43 99 200 473 64 154 155 369
201 479 83 196 93 226 75 226 -5 0 -74 27 -153 61 -78 33 -181 76 -228 96
-211 88 -328 171 -388 272 -39 66 -38 157 1 224 67 113 160 175 419 281 73 30
185 75 248 101 63 26 116 48 118 50 3 2 -33 91 -208 520 -32 77 -87 212 -123
300 -90 221 -138 339 -144 347 -2 4 -25 -1 -51 -11 -26 -10 -72 -28 -102 -40
l-55 -21 77 73 c88 85 150 118 229 125 66 5 106 -12 143 -61 54 -71 59 -102
64 -374 l4 -253 448 0 448 0 5 243 c5 258 12 300 63 376 35 52 71 71 135 71
99 0 159 -39 352 -229 l168 -165 316 317 317 316 -165 168 c-189 192 -229 253
-229 351 0 66 19 100 74 136 76 50 122 57 379 63 l237 6 0 448 0 449 -232 0
c-288 0 -350 14 -422 89 -25 26 -30 42 -34 91 -4 53 0 69 29 128 26 54 63 98
198 235 l165 168 -314 314 c-173 173 -318 314 -322 313 -3 -2 -73 -68 -155
-148 -81 -80 -169 -161 -195 -178 -157 -108 -286 -73 -343 93 -15 40 -19 96
-23 293 l-4 242 -449 0 -449 0 0 -212z m608 -1114 c153 -31 265 -90 384 -203
313 -296 329 -784 35 -1098 -164 -175 -379 -263 -612 -250 -126 7 -197 26
-310 81 -213 105 -360 290 -416 521 -29 123 -23 302 15 420 121 380 514 609
904 529z m-1646 -2241 c131 -131 238 -241 238 -245 0 -4 -37 -19 -82 -34 -64
-20 -105 -26 -179 -28 -88 -1 -100 1 -154 29 -103 52 -143 154 -124 309 9 68
48 206 58 206 3 0 113 -107 243 -237z m-1596 -664 c454 -81 802 -412 907 -863
30 -132 29 -345 -3 -476 -102 -422 -398 -725 -818 -837 -84 -23 -118 -26 -257
-27 -184 -1 -259 12 -420 75 -253 98 -465 295 -585 543 -217 449 -124 956 239
1299 156 147 366 251 580 287 70 12 290 11 357 -1z"/>
</g>
</svg>
